<svg width="25" height="24" viewBox="0 0 25 24" fill="none" xmlns="http://www.w3.org/2000/svg">
<g id="Cart">
<path id="Vector" d="M15.8709 3.43994L19.0819 9.00194L22.5049 9.00212V11.0021L21.3379 11.0019L20.5813 20.0852C20.5381 20.6035 20.1048 21.0021 19.5847 21.0021H5.42502C4.90493 21.0021 4.47166 20.6035 4.42847 20.0852L3.67088 11.0019L2.50488 11.0021V9.00212L5.92688 9.00194L9.13886 3.43994L10.8709 4.43994L8.23688 9.00194H16.7719L14.1389 4.43994L15.8709 3.43994ZM19.3309 11.0019L5.67788 11.0021L6.34488 19.0021H18.6639L19.3309 11.0019ZM13.5049 13.0021V17.0021H11.5049V13.0021H13.5049ZM9.50488 13.0021V17.0021H7.50488V13.0021H9.50488ZM17.5049 13.0021V17.0021H15.5049V13.0021H17.5049Z" fill="#2B2B2B"/>
</g>
</svg>
