<svg width="20" height="20" viewBox="0 0 20 20" fill="none" xmlns="http://www.w3.org/2000/svg">
<g id="Group">
<path id="Vector" d="M10 20C15.5228 20 20 15.5228 20 10C20 4.47715 15.5228 0 10 0C4.47715 0 0 4.47715 0 10C0 15.5228 4.47715 20 10 20Z" fill="white"/>
<path id="Vector_2" d="M19.378 13.4783C19.78 12.395 20 11.2233 20 10.0001C20 8.77685 19.78 7.60513 19.378 6.52181H0.621992C0.220039 7.60513 0 8.77685 0 10.0001C0 11.2233 0.220039 12.395 0.621992 13.4783L10 14.3479L19.378 13.4783Z" fill="#0052B4"/>
<path id="Vector_3" d="M9.9991 19.9999C14.2987 19.9999 17.9642 17.2862 19.3771 13.4782H0.621094C2.03402 17.2862 5.69945 19.9999 9.9991 19.9999Z" fill="#EE1E50"/>
</g>
</svg>
