<svg width="20" height="20" viewBox="0 0 20 20" fill="none" xmlns="http://www.w3.org/2000/svg">
<g id="Group">
<path id="Vector" d="M0.472189 6.95664C0.16586 7.91633 -3.90558e-05 8.93872 6.8967e-09 10C-3.90558e-05 11.0613 0.165899 12.0838 0.472228 13.0435L10 13.4783L19.5279 13.0436C19.8341 12.0838 20.0001 11.0613 20.0001 10.0001C20.0001 8.93876 19.8342 7.91633 19.5279 6.9566L10 6.52184L0.472189 6.95664Z" fill="white"/>
<g id="Group_2">
<path id="Vector_2" d="M19.5277 6.9566L9.99993 6.52184L0.472079 6.9566C0.380881 7.24278 0.30265 7.53294 0.237625 7.82618H19.7621C19.6971 7.53293 19.6189 7.24277 19.5277 6.9566ZM0.237742 12.1739C0.302705 12.4672 0.38091 12.7573 0.472118 13.0435L0.473056 13.0435L9.99989 13.4783L19.5277 13.0435C19.6189 12.7573 19.6971 12.4672 19.7621 12.1739H0.237742Z" fill="#EE1E50"/>
</g>
<path id="Vector_3" d="M9.99998 20C14.4616 20 18.2401 17.078 19.5278 13.0435H0.472214C1.75991 17.078 5.53852 20 9.99998 20Z" fill="#0AB506"/>
<path id="Vector_4" d="M10 3.91645e-10C5.53852 3.9063e-05 1.75999 2.92204 0.472214 6.95655L19.5278 6.95659C18.2402 2.922 14.4616 -3.90623e-05 10 3.91645e-10Z" fill="#2F8AF5"/>
<g id="Group_3">
<path id="Vector_5" d="M4.56981 4.13044C4.56981 3.19384 5.22806 2.41141 6.10708 2.21946C5.96937 2.18926 5.82881 2.174 5.68782 2.17395C4.60727 2.17395 3.73129 3.04989 3.73129 4.13048C3.73129 5.21107 4.60719 6.08701 5.68782 6.08701C5.83181 6.08701 5.97197 6.071 6.10708 6.04151C5.2281 5.84947 4.56981 5.06705 4.56981 4.13044ZM7.26349 5.01978L7.39592 5.4274H7.82451L7.47779 5.67936L7.61021 6.08697L7.26349 5.83506L6.9167 6.08697L7.04916 5.67936L6.7024 5.4274H7.13099L7.26349 5.01978ZM8.63147 5.01978L8.76393 5.4274H9.19253L8.84577 5.67936L8.97823 6.08697L8.63147 5.83506L8.28471 6.08697L8.41717 5.67936L8.07045 5.4274H8.49901L8.63147 5.01978ZM9.99948 5.01978L10.1319 5.4274H10.5605L10.2138 5.67936L10.3462 6.08697L9.99948 5.83506L9.65268 6.08697L9.78518 5.67936L9.43839 5.4274H9.86702L9.99948 5.01978ZM11.3675 5.01978L11.5 5.4274H11.9285L11.5818 5.67936L11.7143 6.08697L11.3675 5.83506L11.0207 6.08697L11.1532 5.67936L10.8064 5.4274H11.235L11.3675 5.01978ZM12.7355 5.01978L12.8679 5.4274H13.2965L12.9498 5.67936L13.0823 6.08697L12.7355 5.83506L12.3887 6.08697L12.5212 5.67936L12.1745 5.4274H12.603L12.7355 5.01978ZM8.63147 3.59685L8.76393 4.00443H9.19253L8.84577 4.25642L8.97823 4.664L8.63147 4.41209L8.28471 4.664L8.41717 4.25642L8.07045 4.00443H8.49901L8.63147 3.59685ZM9.99948 3.59685L10.1319 4.00443H10.5605L10.2138 4.25642L10.3462 4.664L9.99948 4.41209L9.65268 4.664L9.78518 4.25642L9.43839 4.00443H9.86702L9.99948 3.59685ZM11.3675 3.59685L11.5 4.00443H11.9285L11.5818 4.25642L11.7143 4.664L11.3675 4.41209L11.0207 4.664L11.1532 4.25642L10.8064 4.00443H11.235L11.3675 3.59685ZM12.7355 3.59685L12.8679 4.00443H13.2965L12.9498 4.25642L13.0823 4.664L12.7355 4.41209L12.3887 4.664L12.5212 4.25642L12.1745 4.00443H12.603L12.7355 3.59685ZM9.99948 2.17387L10.1319 2.58153H10.5605L10.2138 2.83345L10.3462 3.2411L9.99948 2.98919L9.65268 3.2411L9.78518 2.83345L9.43839 2.58153H9.86702L9.99948 2.17387ZM11.3675 2.17387L11.5 2.58153H11.9285L11.5818 2.83345L11.7143 3.2411L11.3675 2.98919L11.0207 3.2411L11.1532 2.83345L10.8064 2.58153H11.235L11.3675 2.17387ZM12.7355 2.17387L12.8679 2.58153H13.2965L12.9498 2.83345L13.0823 3.2411L12.7355 2.98919L12.3887 3.2411L12.5212 2.83345L12.1745 2.58153H12.603L12.7355 2.17387Z" fill="white"/>
</g>
</g>
</svg>
