<svg width="500" height="500" viewBox="0 0 500 500" fill="none" xmlns="http://www.w3.org/2000/svg">
<g clip-path="url(#clip0_2281_42536)">
<path d="M0 240C0 155.992 0 113.988 16.349 81.9014C30.73 53.6771 53.6771 30.73 81.9014 16.349C113.988 0 155.992 0 240 0H260C344.008 0 386.012 0 418.099 16.349C446.323 30.73 469.27 53.6771 483.651 81.9014C500 113.988 500 155.992 500 240V260C500 344.008 500 386.012 483.651 418.099C469.27 446.323 446.323 469.27 418.099 483.651C386.012 500 344.008 500 260 500H240C155.992 500 113.988 500 81.9014 483.651C53.6771 469.27 30.73 446.323 16.349 418.099C0 386.012 0 344.008 0 260V240Z" fill="#FFCC33"/>
<path d="M89.5052 309.469C87.5577 303.723 85.8627 299.206 84.4203 295.916C82.7795 292.284 79.4986 289.369 74.5774 287.172C72.7741 280.885 71.3224 275.998 70.2224 272.511C69.4649 268.826 67.1571 264.434 63.2991 259.333C61.2248 248.623 61.4847 238.397 64.079 228.655C67.0158 218.715 71.0612 209.509 76.2152 201.038C81.1709 192.222 86.9649 184.068 93.5971 176.575C100.031 168.739 106.249 161.714 112.25 155.501C111.457 154.127 110.375 153.835 109.006 154.626C107.636 155.417 106.798 154.756 106.491 152.643C123 138.531 138.616 122.874 153.341 105.671C168.407 88.2702 184.213 71.3587 200.758 54.9365C217.302 38.5143 235.551 23.8566 255.503 10.9633C275.256 -2.27351 298.318 -12.1532 324.688 -18.6757C328.438 -15.3445 332.602 -12.4816 337.18 -10.0871C341.759 -7.69258 346.338 -5.29804 350.917 -2.90351C355.639 -1.05018 360.02 1.00084 364.058 3.2496C368.095 5.49835 371.376 8.41313 373.9 11.9939C380.191 13.3999 385.824 15.6437 390.8 18.7252C395.919 21.2655 399.705 26.6368 402.158 34.8389C399.977 39.7617 397.626 44.7835 395.103 49.9041C392.58 55.0246 389.787 60.0723 386.723 65.0471C369.132 70.1657 352.928 77.6888 338.113 87.6164C323.298 97.544 310.123 106.754 298.588 115.245C292.441 113.298 286.898 113.979 281.96 117.288C276.823 120.254 271.84 124.276 267.01 129.355C262.324 133.892 257.737 138.601 253.249 143.482C248.564 148.02 243.625 151.329 238.434 153.41C236.65 159.02 233.073 164.291 227.702 169.224C222.133 173.813 216.123 178.429 209.67 183.07C210.319 184.985 211.356 185.99 212.78 186.084C214.204 186.177 215.168 187.453 215.673 189.909C219.855 191.617 224.398 191.971 229.3 190.972C234.005 189.63 238.709 188.288 243.414 186.946C248.46 185.407 253.291 184.679 257.905 184.763C262.321 184.503 266.233 186.138 269.64 189.666C276.003 186.451 282.302 185.104 288.539 185.625C294.577 185.803 300.328 187.063 305.79 189.406C311.251 191.748 316.056 194.929 320.202 198.947C324.15 202.622 327.043 206.447 328.882 210.423C332.235 213.068 334.398 213.651 335.372 212.173C336.687 210.497 339.067 210.269 342.509 211.487C346.854 215.849 353.109 219.565 361.275 222.637C369.585 225.167 376.994 228.905 383.501 233.85C390.136 243.759 396.004 252.737 401.106 260.784C406.551 268.632 409.842 277.495 410.979 287.373C413.883 305.848 413.327 324.261 409.31 342.61C405.293 360.959 398.941 378.825 390.255 396.205C381.714 413.045 371.721 429.348 360.277 445.115C348.635 460.539 336.569 474.833 324.08 487.998C322.512 488.446 320.799 489.434 318.943 490.964C317.429 492.296 316.492 491.463 316.131 488.466C314.635 492.993 312.031 496.787 308.318 499.846C304.948 502.708 300.767 505.351 295.774 507.776C291.322 510.346 286.6 512.843 281.607 515.268C276.957 517.495 272.605 520.237 268.549 523.494C264.223 522.327 260.068 521.062 256.085 519.698C252.443 518.137 248.847 515.862 245.296 512.874C243.385 513.519 241.934 512.983 240.942 511.265C240.095 509.007 238.815 508.372 237.103 509.36C236.31 507.986 235.886 506.857 235.832 505.972C235.777 505.087 235.723 504.203 235.669 503.318C236.444 501.497 236.561 500.513 236.02 500.367C235.624 499.68 234.812 499.462 233.587 499.711C232.505 499.42 231.252 499.227 229.828 499.133C228.747 498.841 228.08 498.082 227.827 496.853C227.755 492.773 226.186 488.87 223.121 485.143C220.201 480.875 217.28 476.608 214.359 472.34C211.439 468.072 209.401 463.752 208.247 459.381C206.895 454.665 207.822 449.55 211.03 444.034C225.864 437.302 238.651 429.003 249.393 419.137C260.477 409.074 270.11 398.474 278.292 387.338C286.816 376.004 294.457 364.723 301.215 353.493C308.117 341.722 314.974 330.664 321.786 320.319C320.83 316.291 320.686 312.482 321.352 308.891C322.361 305.102 323.469 301.485 324.676 298.04C325.685 294.252 326.523 290.562 327.189 286.972C327.657 283.037 327.314 278.884 326.16 274.513C325.709 272.941 325.114 271.91 324.375 271.421C323.636 270.932 322.825 270.713 321.942 270.765C320.86 270.473 319.779 270.182 318.697 269.89C317.616 269.599 316.678 268.766 315.885 267.392C314.659 267.642 313.434 267.891 312.208 268.141C311.325 268.193 310.541 268.416 309.856 268.812C298.374 269.487 286.775 271.145 275.059 273.788C263.343 276.43 252.97 277.839 243.939 278.014C241.417 283.135 237.704 286.195 232.801 287.193C227.899 288.192 222.14 289.684 215.525 291.672C200.745 299.289 186.254 305.823 172.051 311.275C158.191 316.53 143.78 320.04 128.819 321.808C126.945 320.142 125.097 318.919 123.276 318.138C121.257 317.014 118.563 317.882 115.192 320.744C110.812 318.693 106.459 317.085 102.133 315.918C97.9505 314.211 93.7414 312.061 89.5052 309.469Z" fill="black"/>
</g>
<defs>
<clipPath id="clip0_2281_42536">
<rect width="500" height="500" rx="150" fill="white"/>
</clipPath>
</defs>
</svg>
