<svg width="104" height="38" viewBox="0 0 104 38" fill="none" xmlns="http://www.w3.org/2000/svg">
<g id="LOGO">
<path d="M0 18.24C0 11.8554 0 8.66308 1.23883 6.2245C2.32854 4.07945 4.06733 2.33547 6.20602 1.24252C8.63736 0 11.8202 0 18.1858 0H19.7013C20.0675 0 20.423 1.99648e-08 20.7686 0.000236413C23.5874 0.00216501 25.7363 0.0198279 27.4664 0.181594C29.2115 0.344749 30.5303 0.654491 31.681 1.24252C33.8197 2.33547 35.5585 4.07945 36.6482 6.2245C37.8871 8.66308 37.8871 11.8554 37.8871 18.24V19.76C37.8871 26.1447 37.8871 29.3369 36.6482 31.7754C35.5585 33.9205 33.8197 35.6645 31.681 36.7574C29.7682 37.735 27.3903 37.9435 23.3631 37.988C22.2715 38 21.0588 38 19.7013 38H18.1858C18.0767 38 17.9686 38 17.8614 38C11.7113 37.9996 8.5957 37.9786 6.20602 36.7574C4.06733 35.6645 2.32854 33.9205 1.23883 31.7754C0 29.3369 0 26.1447 0 19.76V18.24Z" fill="#FFCC33"/>
<path fill-rule="evenodd" clip-rule="evenodd" d="M6.78218 23.5196C6.63461 23.0829 6.50618 22.7395 6.39687 22.4896C6.27254 22.2136 6.02393 21.9919 5.65105 21.825C5.51439 21.3471 5.4044 20.9757 5.32105 20.7108C5.26365 20.4307 5.08876 20.0969 4.79643 19.7093C4.63925 18.8953 4.65895 18.1181 4.85553 17.3777C5.07806 16.6223 5.3846 15.9227 5.77514 15.2788C6.15066 14.6089 6.58968 13.9892 7.09223 13.4197C7.57976 12.8241 8.05091 12.2902 8.50567 11.818C8.44556 11.7136 8.36359 11.6914 8.2598 11.7516C8.15601 11.8117 8.09249 11.7614 8.06924 11.6008C9.3202 10.5284 10.5035 9.3384 11.6192 8.03099C12.7609 6.70853 13.9586 5.42326 15.2122 4.17517C16.4659 2.92709 17.8487 1.8131 19.3605 0.833209C19.8075 0.532796 20.2768 0.255144 20.7686 0.000236413C23.5874 0.00216501 25.7363 0.0198279 27.4664 0.181594C27.5068 0.203136 27.5467 0.224927 27.5861 0.246969C27.8921 0.417874 28.1408 0.639396 28.3319 0.911538C28.8088 1.01839 29.2356 1.18892 29.6125 1.42311C30.0005 1.61618 30.2873 2.0244 30.4731 2.64775C30.308 3.0219 30.1297 3.40354 29.9385 3.79269C29.7474 4.18187 29.5358 4.56549 29.3036 4.94357C27.9707 5.33259 26.7428 5.90435 25.6202 6.65883C24.4976 7.41334 23.4993 8.11327 22.6252 8.75864C22.1594 8.61064 21.7394 8.6624 21.3653 8.9139C20.976 9.13929 20.5984 9.44498 20.2325 9.83096C19.8773 10.1758 19.5298 10.5337 19.1898 10.9046C18.8347 11.2495 18.4605 11.501 18.0672 11.6591C17.932 12.0855 17.6609 12.4861 17.2539 12.861C16.832 13.2098 16.3765 13.5606 15.8876 13.9133C15.9368 14.0589 16.0153 14.1352 16.1232 14.1423C16.2311 14.1495 16.3042 14.2464 16.3425 14.4331C16.6594 14.5628 17.0035 14.5898 17.375 14.5139L18.4444 14.2079C18.8269 14.0909 19.1928 14.0356 19.5425 14.0419C19.8773 14.0222 20.1735 14.1464 20.4317 14.4146C20.9139 14.1703 21.3912 14.0679 21.8639 14.1075C22.3214 14.121 22.7571 14.2168 23.171 14.3948C23.5849 14.5729 23.9488 14.8146 24.2631 15.12C24.5622 15.3992 24.7814 15.69 24.9208 15.9922C25.1748 16.1931 25.3387 16.2374 25.4126 16.1251C25.5122 15.9978 25.6925 15.9804 25.9534 16.073C26.2826 16.4045 26.7566 16.6869 27.3753 16.9204C28.005 17.1127 28.5663 17.3967 29.0596 17.7725C29.5621 18.5257 30.0069 19.2079 30.3936 19.8195C30.806 20.416 31.0555 21.0896 31.1415 21.8403C31.3616 23.2445 31.3195 24.6437 31.0151 26.0384C30.7107 27.4329 30.2293 28.7905 29.5712 30.1116C28.9241 31.3914 28.1668 32.6304 27.2997 33.8288C26.4175 35.001 25.5033 36.0872 24.5569 37.0878C24.4381 37.1217 24.3083 37.1969 24.1676 37.3133C24.053 37.4144 23.9819 37.3512 23.9545 37.1233C23.8412 37.4672 23.6442 37.7554 23.3631 37.988C22.2715 38 21.0588 38 19.7013 38H18.1858H17.8614C17.8273 37.9702 17.7734 37.963 17.6998 37.9781C17.6179 37.9559 17.523 37.9412 17.4151 37.934C17.3331 37.9119 17.2825 37.8541 17.2634 37.7608C17.2579 37.4508 17.139 37.1542 16.9068 36.8709L16.2429 35.8978C16.0216 35.5735 15.8672 35.2452 15.7797 34.9129C15.6773 34.5544 15.7476 34.1657 15.9906 33.7466C17.1146 33.2349 18.0836 32.6041 18.8975 31.8544C19.7375 31.0896 20.4674 30.284 21.0874 29.4376C21.7332 28.5763 22.3123 27.7188 22.8243 26.8654C23.3473 25.9709 23.867 25.1304 24.383 24.3442C24.3106 24.0381 24.2996 23.7485 24.3502 23.4757C24.4265 23.1878 24.5107 22.9129 24.6022 22.651C24.6785 22.3632 24.742 22.0827 24.7925 21.8097C24.828 21.5108 24.802 21.1951 24.7145 20.863C24.6804 20.7434 24.6353 20.6652 24.5792 20.628C24.5232 20.5908 24.4618 20.5742 24.3949 20.5782L24.149 20.5116C24.067 20.4895 23.996 20.4261 23.9359 20.3218L23.6573 20.3786C23.5904 20.3827 23.5309 20.3996 23.479 20.4296C22.6091 20.4809 21.7301 20.607 20.8424 20.8079C19.9545 21.0085 19.1686 21.1158 18.4843 21.1291C18.2931 21.5183 18.0118 21.7508 17.6403 21.8267C17.2688 21.9025 16.8324 22.016 16.3312 22.167C15.2113 22.7458 14.1132 23.2426 13.037 23.6569C11.9867 24.0562 10.8948 24.3231 9.76119 24.4573C9.61911 24.3307 9.4791 24.2378 9.34115 24.1785C9.18816 24.093 8.98399 24.159 8.72859 24.3765C8.39668 24.2206 8.06682 24.0983 7.739 24.0098C7.42211 23.8799 7.10318 23.7166 6.78218 23.5196Z" fill="black"/>
<path d="M41.6758 30.726H43.4233V31.6417H43.537C43.7548 31.2983 44.0485 31.0217 44.4179 30.8119C44.7967 30.602 45.2135 30.4971 45.6681 30.4971C46.1985 30.4971 46.6437 30.6211 47.0036 30.8691C47.3636 31.1171 47.6193 31.4223 47.7709 31.7847C47.9887 31.4318 48.2965 31.1314 48.6944 30.8834C49.0922 30.6259 49.5752 30.4971 50.1435 30.4971C50.5698 30.4971 50.9392 30.5686 51.2517 30.7117C51.5643 30.8452 51.82 31.036 52.0189 31.284C52.2273 31.532 52.3836 31.8324 52.4878 32.1854C52.592 32.5287 52.6441 32.9055 52.6441 33.3156V37.7366H50.7829V33.659C50.7829 32.7052 50.3945 32.2283 49.6178 32.2283C49.3716 32.2283 49.1537 32.2855 48.9643 32.4C48.7749 32.5049 48.6138 32.6527 48.4812 32.8435C48.3581 33.0247 48.2587 33.2441 48.1829 33.5016C48.1166 33.7591 48.0834 34.0358 48.0834 34.3314V37.7366H46.2222V33.659C46.2222 32.7052 45.8149 32.2283 45.0004 32.2283C44.7636 32.2283 44.5552 32.2855 44.3752 32.4C44.1953 32.5049 44.0437 32.6527 43.9206 32.8435C43.7975 33.0247 43.7027 33.2441 43.6364 33.5016C43.5701 33.7591 43.537 34.0358 43.537 34.3314V37.7366H41.6758V30.726Z" fill="black"/>
<path d="M58.3982 36.9926H58.2845C58.0667 37.2597 57.8015 37.4886 57.4889 37.6793C57.1858 37.8701 56.7927 37.9655 56.3097 37.9655C55.9497 37.9655 55.6087 37.9035 55.2867 37.7795C54.9741 37.665 54.6995 37.5029 54.4627 37.293C54.2259 37.0832 54.0412 36.8304 53.9086 36.5347C53.776 36.2391 53.7097 35.9148 53.7097 35.5619C53.7097 35.1994 53.7807 34.8751 53.9228 34.589C54.0648 34.2933 54.2637 34.0405 54.5195 33.8307C54.7752 33.6208 55.0736 33.4635 55.4146 33.3585C55.765 33.2441 56.1439 33.1869 56.5512 33.1869C57.0058 33.1869 57.38 33.225 57.6736 33.3013C57.9672 33.3681 58.2087 33.4396 58.3982 33.5159V33.3013C58.3982 32.9293 58.2514 32.6241 57.9577 32.3857C57.6641 32.1377 57.2994 32.0137 56.8638 32.0137C56.2197 32.0137 55.675 32.2855 55.2299 32.8292L53.8801 31.8992C54.6189 30.9645 55.6277 30.4971 56.9064 30.4971C57.9862 30.4971 58.8102 30.7546 59.3785 31.2697C59.9468 31.7752 60.231 32.5287 60.231 33.5302V37.7366H58.3982V36.9926ZM58.3982 34.8894C58.1803 34.7845 57.953 34.7034 57.7162 34.6462C57.4889 34.5794 57.2379 34.546 56.9632 34.546C56.518 34.546 56.1723 34.6462 55.926 34.8465C55.6893 35.0373 55.5709 35.2757 55.5709 35.5619C55.5709 35.848 55.6845 36.0769 55.9118 36.2486C56.1486 36.4203 56.4186 36.5061 56.7217 36.5061C56.9679 36.5061 57.1953 36.4632 57.4036 36.3774C57.612 36.282 57.7872 36.1628 57.9293 36.0197C58.0809 35.8671 58.1945 35.6954 58.2703 35.5046C58.3556 35.3043 58.3982 35.0993 58.3982 34.8894Z" fill="black"/>
<path d="M61.7108 30.726H63.4584V31.6989H63.572C63.6573 31.5272 63.7709 31.3698 63.913 31.2268C64.0551 31.0837 64.2114 30.9597 64.3819 30.8548C64.5618 30.7499 64.7513 30.6688 64.9502 30.6116C65.1586 30.5543 65.3622 30.5257 65.5611 30.5257C65.8074 30.5257 66.0157 30.5496 66.1862 30.5972C66.3662 30.6449 66.5178 30.7069 66.6409 30.7832L66.1436 32.4858C66.03 32.4286 65.9021 32.3857 65.76 32.357C65.6274 32.3189 65.4617 32.2998 65.2627 32.2998C65.007 32.2998 64.7749 32.3523 64.5666 32.4572C64.3582 32.5526 64.1782 32.6909 64.0267 32.8721C63.8846 33.0533 63.7709 33.2679 63.6857 33.5159C63.6099 33.7544 63.572 34.0167 63.572 34.3028V37.7366H61.7108V30.726Z" fill="black"/>
<path d="M67.5659 27.4926H69.4271V33.0724H69.5124L71.8424 30.726H74.144V30.8405L71.5583 33.3729L74.3572 37.6221V37.7366H72.155L70.2511 34.6605L69.4271 35.476V37.7366H67.5659V27.4926Z" fill="black"/>
<path d="M83.3455 32.3284H82.1236V30.726H83.3455V28.5799H85.2067V30.726H86.9116V32.3284H85.2067V35.0468C85.2067 35.2089 85.2209 35.3616 85.2493 35.5046C85.2872 35.6382 85.3535 35.7526 85.4482 35.848C85.5808 36.0006 85.7703 36.0769 86.0165 36.0769C86.1775 36.0769 86.3054 36.0626 86.4001 36.034C86.4948 35.9958 86.5848 35.9482 86.6701 35.8909L87.1958 37.5363C86.9779 37.6412 86.7411 37.7175 86.4854 37.7652C86.2391 37.8224 85.9644 37.851 85.6613 37.851C85.3109 37.851 84.9936 37.7986 84.7094 37.6936C84.4347 37.5792 84.2027 37.4266 84.0132 37.2358C83.5681 36.8066 83.3455 36.1961 83.3455 35.4045V32.3284Z" fill="black"/>
<path d="M81.7501 35.0806C81.5862 35.7173 81.2842 36.2776 80.8442 36.7618C80.4134 37.2432 79.8184 37.5866 79.0589 37.7915C78.5467 37.9298 78.0475 37.9706 77.5618 37.914C77.0829 37.8459 76.6404 37.6936 76.2343 37.4577C75.8283 37.2215 75.4762 36.9117 75.178 36.5281C74.8864 36.1326 74.6709 35.6725 74.5311 35.1473C74.4013 34.659 74.3655 34.1748 74.4242 33.695C74.4803 33.2059 74.621 32.758 74.8463 32.3517C75.0691 31.936 75.3651 31.5747 75.7345 31.2678C76.113 30.9582 76.5586 30.7344 77.0708 30.5961C77.6107 30.4504 78.1156 30.413 78.5854 30.4837C79.0529 30.5452 79.4713 30.6989 79.8407 30.9448C80.2077 31.1816 80.5219 31.4967 80.7836 31.8902C81.0452 32.2838 81.2433 32.7338 81.3782 33.2405C81.3954 33.3049 81.41 33.3603 81.4223 33.4064C81.4278 33.464 81.4367 33.5161 81.4491 33.5621C81.4521 33.6105 81.461 33.6626 81.4758 33.7178L76.4118 35.0842C76.522 35.3507 76.6588 35.5704 76.8227 35.7437C76.993 35.905 77.179 36.0325 77.3804 36.1263C77.5885 36.2084 77.8018 36.2545 78.0203 36.2646C78.2362 36.2656 78.4495 36.2377 78.66 36.1811C79.0716 36.0699 79.3855 35.8863 79.6019 35.6305C79.8248 35.3631 79.9762 35.0655 80.0557 34.738L81.7501 35.0806ZM79.4183 32.8954C79.3774 32.7782 79.3007 32.6556 79.1881 32.528C79.0849 32.3979 78.9476 32.2868 78.7759 32.1949C78.6136 32.1005 78.4207 32.039 78.1974 32.0104C77.9831 31.9793 77.7388 32.0007 77.4643 32.0749C77.0801 32.1785 76.7709 32.3803 76.537 32.6806C76.3032 32.9806 76.1793 33.3448 76.1659 33.7731L79.4183 32.8954Z" fill="black"/>
<path d="M48.8758 23.6546C47.8563 23.6546 46.943 23.5264 46.136 23.27C45.3501 23.0135 44.6598 22.6823 44.0651 22.2764C43.4917 21.8489 43.0031 21.3681 42.5996 20.8338C42.1962 20.2783 41.8881 19.7226 41.6758 19.1669L45.4033 17.5643C45.7644 18.3763 46.2421 18.9853 46.8368 19.3914C47.4528 19.776 48.1325 19.9683 48.8758 19.9683C49.6404 19.9683 50.2456 19.8294 50.6918 19.5517C51.1377 19.2739 51.3607 18.9426 51.3607 18.558C51.3607 18.1306 51.1695 17.7887 50.7872 17.5322C50.4262 17.2544 49.7891 17.0087 48.8758 16.795L46.6776 16.3142C46.1891 16.2073 45.6793 16.0363 45.1483 15.8013C44.6385 15.5662 44.1714 15.267 43.7465 14.9037C43.3218 14.5405 42.9713 14.1024 42.6953 13.5895C42.4191 13.0767 42.281 12.4783 42.281 11.7945C42.281 11.0252 42.4403 10.3413 42.759 9.74299C43.0988 9.14465 43.5554 8.64244 44.129 8.23642C44.7024 7.80904 45.3713 7.4885 46.136 7.27479C46.9218 7.03973 47.7608 6.9222 48.6527 6.9222C50.1396 6.9222 51.4669 7.22137 52.635 7.81972C53.8032 8.3967 54.6635 9.32627 55.2157 10.6085L51.6156 12.083C51.3182 11.4632 50.8829 11.0145 50.3095 10.7367C49.7359 10.4589 49.1624 10.32 48.589 10.32C47.9944 10.32 47.474 10.4482 47.0279 10.7046C46.582 10.9397 46.359 11.2495 46.359 11.6342C46.359 11.9975 46.5395 12.286 46.9006 12.4997C47.2829 12.7134 47.7926 12.9057 48.4297 13.0767L50.8191 13.6536C52.412 14.0383 53.5909 14.658 54.3554 15.5128C55.1412 16.3462 55.5341 17.3399 55.5341 18.4938C55.5341 19.1776 55.3748 19.8294 55.0564 20.4492C54.7377 21.0688 54.281 21.6245 53.6864 22.1159C53.1129 22.5862 52.412 22.96 51.5838 23.238C50.7766 23.5157 49.874 23.6546 48.8758 23.6546Z" fill="black"/>
<path d="M59.6604 11.0252H56.9206V7.43507H59.6604V2.6269H63.8338V7.43507H67.6568V11.0252H63.8338V17.1155C63.8338 17.4788 63.8657 17.8207 63.9293 18.1413C64.0144 18.4404 64.1631 18.6969 64.3754 18.9106C64.6727 19.2524 65.0976 19.4235 65.6498 19.4235C66.0108 19.4235 66.2974 19.3914 66.5098 19.3274C66.7223 19.2417 66.9241 19.1349 67.1152 19.0067L68.2939 22.693C67.8055 22.928 67.2746 23.0989 66.7011 23.2059C66.1487 23.3341 65.5329 23.3982 64.8532 23.3982C64.0674 23.3982 63.3559 23.2807 62.7188 23.0455C62.1028 22.7891 61.5824 22.4473 61.1577 22.0198C60.1594 21.0581 59.6604 19.6906 59.6604 17.9169V11.0252Z" fill="black"/>
<path d="M77.9625 6.9222C79.1732 6.9222 80.2776 7.13589 81.2757 7.56328C82.2953 7.96932 83.1661 8.54628 83.8882 9.29422C84.6316 10.0208 85.205 10.8969 85.6085 11.9227C86.0332 12.9484 86.2457 14.0703 86.2457 15.2884C86.2457 16.5065 86.0332 17.6284 85.6085 18.6541C85.205 19.6799 84.6316 20.5667 83.8882 21.3147C83.1661 22.0411 82.2953 22.6182 81.2757 23.0455C80.2776 23.4516 79.1732 23.6546 77.9625 23.6546C76.7518 23.6546 75.6368 23.4516 74.6174 23.0455C73.6191 22.6182 72.7483 22.0411 72.0049 21.3147C71.2828 20.5667 70.7094 19.6799 70.2847 18.6541C69.881 17.6284 69.6792 16.5065 69.6792 15.2884C69.6792 14.0703 69.881 12.9484 70.2847 11.9227C70.7094 10.8969 71.2828 10.0208 72.0049 9.29422C72.7483 8.54628 73.6191 7.96932 74.6174 7.56328C75.6368 7.13589 76.7518 6.9222 77.9625 6.9222ZM77.9625 19.776C78.4935 19.776 79.0033 19.6799 79.4916 19.4876C80.0014 19.2739 80.4475 18.9747 80.8298 18.59C81.2121 18.2054 81.5093 17.7352 81.7218 17.1796C81.9554 16.624 82.0723 15.9936 82.0723 15.2884C82.0723 14.5832 81.9554 13.9528 81.7218 13.3972C81.5093 12.8416 81.2121 12.3715 80.8298 11.9868C80.4475 11.6022 80.0014 11.3137 79.4916 11.1213C79.0033 10.9076 78.4935 10.8008 77.9625 10.8008C77.4103 10.8008 76.8899 10.9076 76.4014 11.1213C75.913 11.3137 75.4775 11.6022 75.0952 11.9868C74.7129 12.3715 74.4049 12.8416 74.1713 13.3972C73.959 13.9528 73.8527 14.5832 73.8527 15.2884C73.8527 15.9936 73.959 16.624 74.1713 17.1796C74.4049 17.7352 74.7129 18.2054 75.0952 18.59C75.4775 18.9747 75.913 19.2739 76.4014 19.4876C76.8899 19.6799 77.4103 19.776 77.9625 19.776Z" fill="black"/>
<path d="M88.7717 0.190763H92.9451V12.692H93.1363L98.3611 7.43507H103.522V7.69151L97.7238 13.3651L104 22.8853V23.1417H99.062L94.7929 16.25L92.9451 18.0771V23.1417H88.7717V0.190763Z" fill="black"/>
</g>
</svg>
